<svg viewBox="0 0 128 128" xmlns="http://www.w3.org/2000/svg"><defs>
<linearGradient id="application_x_firmware_brass" x1="0" y1="0" x2="0.2" y2="1">
 <stop offset="0" stop-color="#f0d79a"/><stop offset="0.45" stop-color="#bd9151"/>
 <stop offset="0.75" stop-color="#8a6230"/><stop offset="1" stop-color="#5c3f1e"/>
</linearGradient>
<radialGradient id="application_x_firmware_brassR" cx="0.35" cy="0.28" r="0.85">
 <stop offset="0" stop-color="#f3dca2"/><stop offset="0.5" stop-color="#bd9151"/>
 <stop offset="1" stop-color="#5a3c1c"/>
</radialGradient>
<linearGradient id="application_x_firmware_copper" x1="0" y1="0" x2="0.3" y2="1">
 <stop offset="0" stop-color="#e2a06a"/><stop offset="0.5" stop-color="#b06a39"/>
 <stop offset="1" stop-color="#6e3a1a"/>
</linearGradient>
<radialGradient id="application_x_firmware_recess" cx="0.5" cy="0.38" r="0.75">
 <stop offset="0" stop-color="#332a1f"/><stop offset="0.7" stop-color="#211a12"/>
 <stop offset="1" stop-color="#100b07"/>
</radialGradient>
<radialGradient id="application_x_firmware_rivet" cx="0.35" cy="0.3" r="0.7">
 <stop offset="0" stop-color="#ffeebc"/><stop offset="0.5" stop-color="#c79a58"/>
 <stop offset="1" stop-color="#6b4824"/>
</radialGradient>
<radialGradient id="application_x_firmware_glow" cx="0.5" cy="0.5" r="0.5">
 <stop offset="0" stop-color="#ffb15a"/><stop offset="0.5" stop-color="#d97a2a"/>
 <stop offset="1" stop-color="#d97a2a" stop-opacity="0"/>
</radialGradient>
<filter id="application_x_firmware_sh" x="-30%" y="-30%" width="160%" height="160%">
 <feDropShadow dx="0" dy="2.5" stdDeviation="2.2" flood-color="#000" flood-opacity="0.55"/>
</filter>
</defs><g filter="url(#application_x_firmware_sh)"><g transform="translate(64,64) scale(1.22) translate(-50,-50)"><rect x="17" y="6" width="6" height="11" rx="1.5" fill="url(#application_x_firmware_brass)" stroke="#4a3014" stroke-width="0.6"/><rect x="17" y="83" width="6" height="11" rx="1.5" fill="url(#application_x_firmware_brass)" stroke="#4a3014" stroke-width="0.6"/><rect x="6" y="17" width="11" height="6" rx="1.5" fill="url(#application_x_firmware_brass)" stroke="#4a3014" stroke-width="0.6"/><rect x="83" y="17" width="11" height="6" rx="1.5" fill="url(#application_x_firmware_brass)" stroke="#4a3014" stroke-width="0.6"/><rect x="27" y="6" width="6" height="11" rx="1.5" fill="url(#application_x_firmware_brass)" stroke="#4a3014" stroke-width="0.6"/><rect x="27" y="83" width="6" height="11" rx="1.5" fill="url(#application_x_firmware_brass)" stroke="#4a3014" stroke-width="0.6"/><rect x="6" y="27" width="11" height="6" rx="1.5" fill="url(#application_x_firmware_brass)" stroke="#4a3014" stroke-width="0.6"/><rect x="83" y="27" width="11" height="6" rx="1.5" fill="url(#application_x_firmware_brass)" stroke="#4a3014" stroke-width="0.6"/><rect x="37" y="6" width="6" height="11" rx="1.5" fill="url(#application_x_firmware_brass)" stroke="#4a3014" stroke-width="0.6"/><rect x="37" y="83" width="6" height="11" rx="1.5" fill="url(#application_x_firmware_brass)" stroke="#4a3014" stroke-width="0.6"/><rect x="6" y="37" width="11" height="6" rx="1.5" fill="url(#application_x_firmware_brass)" stroke="#4a3014" stroke-width="0.6"/><rect x="83" y="37" width="11" height="6" rx="1.5" fill="url(#application_x_firmware_brass)" stroke="#4a3014" stroke-width="0.6"/><rect x="47" y="6" width="6" height="11" rx="1.5" fill="url(#application_x_firmware_brass)" stroke="#4a3014" stroke-width="0.6"/><rect x="47" y="83" width="6" height="11" rx="1.5" fill="url(#application_x_firmware_brass)" stroke="#4a3014" stroke-width="0.6"/><rect x="6" y="47" width="11" height="6" rx="1.5" fill="url(#application_x_firmware_brass)" stroke="#4a3014" stroke-width="0.6"/><rect x="83" y="47" width="11" height="6" rx="1.5" fill="url(#application_x_firmware_brass)" stroke="#4a3014" stroke-width="0.6"/><rect x="57" y="6" width="6" height="11" rx="1.5" fill="url(#application_x_firmware_brass)" stroke="#4a3014" stroke-width="0.6"/><rect x="57" y="83" width="6" height="11" rx="1.5" fill="url(#application_x_firmware_brass)" stroke="#4a3014" stroke-width="0.6"/><rect x="6" y="57" width="11" height="6" rx="1.5" fill="url(#application_x_firmware_brass)" stroke="#4a3014" stroke-width="0.6"/><rect x="83" y="57" width="11" height="6" rx="1.5" fill="url(#application_x_firmware_brass)" stroke="#4a3014" stroke-width="0.6"/><rect x="67" y="6" width="6" height="11" rx="1.5" fill="url(#application_x_firmware_brass)" stroke="#4a3014" stroke-width="0.6"/><rect x="67" y="83" width="6" height="11" rx="1.5" fill="url(#application_x_firmware_brass)" stroke="#4a3014" stroke-width="0.6"/><rect x="6" y="67" width="11" height="6" rx="1.5" fill="url(#application_x_firmware_brass)" stroke="#4a3014" stroke-width="0.6"/><rect x="83" y="67" width="11" height="6" rx="1.5" fill="url(#application_x_firmware_brass)" stroke="#4a3014" stroke-width="0.6"/><rect x="14" y="14" width="72" height="72" rx="10" fill="url(#application_x_firmware_brass)" stroke="#4a3014" stroke-width="2"/><rect x="24" y="24" width="52" height="52" rx="7" fill="url(#application_x_firmware_recess)" stroke="#3d2a12" stroke-width="1.6"/><circle cx="32" cy="32" r="3" fill="none" stroke="#7a5a2e" stroke-width="1.4"/><g transform="translate(50,50) scale(0.5) translate(-50,-50)"><path d="M76 50 L99 30 L90 50 L99 70 Z" fill="url(#application_x_firmware_copper)" stroke="#4a3014" stroke-width="1.4"/><path d="M46 33 L60 16 L70 36 Z" fill="url(#application_x_firmware_copper)" stroke="#4a3014" stroke-width="1.2"/><path d="M48 67 L58 82 L68 64 Z" fill="url(#application_x_firmware_copper)" stroke="#4a3014" stroke-width="1.2"/><path d="M18 50 Q34 25 62 31 Q83 35 81 50 Q83 65 62 69 Q34 75 18 50 Z" fill="url(#application_x_firmware_brassR)" stroke="#4a3014" stroke-width="2"/><path d="M36 35 Q30 50 36 65" stroke-linecap="round" stroke-linejoin="round" fill="none" stroke="#5a3c1c" stroke-width="2"/><g transform="rotate(15 58 50)"><path d="M69.8 47.9 L69.8 52.1 L65.9 51.4 L64.9 54.0 L68.4 56.0 L65.7 59.2 L63.1 56.1 L60.7 57.5 L62.1 61.3 L58.0 62.0 L58.0 58.0 L55.3 57.5 L53.9 61.3 L50.3 59.2 L52.9 56.1 L51.1 54.0 L47.6 56.0 L46.2 52.1 L50.1 51.4 L50.1 48.6 L46.2 47.9 L47.6 44.0 L51.1 46.0 L52.9 43.9 L50.3 40.8 L53.9 38.7 L55.3 42.5 L58.0 42.0 L58.0 38.0 L62.1 38.7 L60.7 42.5 L63.1 43.9 L65.7 40.8 L68.4 44.0 L64.9 46.0 L65.9 48.6 Z" fill="url(#application_x_firmware_brassR)" stroke="#4a3014" stroke-width="1.2"/><circle cx="58" cy="50" r="5.0" fill="none" stroke="#5a3c1c" stroke-width="1.4" opacity="0.6"/></g><g opacity="0.5" stroke="#5a3c1c" stroke-width="1.4" fill="none"><path d="M44 40 Q50 50 44 60"/><path d="M52 38 Q58 50 52 62"/></g><circle cx="32" cy="46" r="7" fill="url(#application_x_firmware_glow)"/><circle cx="32" cy="46" r="4" fill="#2a1408"/><circle cx="33" cy="45" r="1.6" fill="#ffd089"/></g></g></g></svg>