<svg viewBox="0 0 128 128" xmlns="http://www.w3.org/2000/svg"><defs>
<linearGradient id="text_html_brass" x1="0" y1="0" x2="0.2" y2="1">
 <stop offset="0" stop-color="#f0d79a"/><stop offset="0.45" stop-color="#bd9151"/>
 <stop offset="0.75" stop-color="#8a6230"/><stop offset="1" stop-color="#5c3f1e"/>
</linearGradient>
<radialGradient id="text_html_brassR" cx="0.35" cy="0.28" r="0.85">
 <stop offset="0" stop-color="#f3dca2"/><stop offset="0.5" stop-color="#bd9151"/>
 <stop offset="1" stop-color="#5a3c1c"/>
</radialGradient>
<linearGradient id="text_html_copper" x1="0" y1="0" x2="0.3" y2="1">
 <stop offset="0" stop-color="#e2a06a"/><stop offset="0.5" stop-color="#b06a39"/>
 <stop offset="1" stop-color="#6e3a1a"/>
</linearGradient>
<radialGradient id="text_html_recess" cx="0.5" cy="0.38" r="0.75">
 <stop offset="0" stop-color="#332a1f"/><stop offset="0.7" stop-color="#211a12"/>
 <stop offset="1" stop-color="#100b07"/>
</radialGradient>
<radialGradient id="text_html_rivet" cx="0.35" cy="0.3" r="0.7">
 <stop offset="0" stop-color="#ffeebc"/><stop offset="0.5" stop-color="#c79a58"/>
 <stop offset="1" stop-color="#6b4824"/>
</radialGradient>
<radialGradient id="text_html_glow" cx="0.5" cy="0.5" r="0.5">
 <stop offset="0" stop-color="#ffb15a"/><stop offset="0.5" stop-color="#d97a2a"/>
 <stop offset="1" stop-color="#d97a2a" stop-opacity="0"/>
</radialGradient>
<filter id="text_html_sh" x="-30%" y="-30%" width="160%" height="160%">
 <feDropShadow dx="0" dy="2.5" stdDeviation="2.2" flood-color="#000" flood-opacity="0.55"/>
</filter>
</defs><path d="M30 12 h44 l24 24 v76 q0 6-6 6 h-62 q-6 0-6-6 v-94 q0-6 6-6 z" fill="url(#text_html_brass)" stroke="#4a3014" stroke-width="2" filter="url(#text_html_sh)"/><path d="M74 12 l24 24 h-20 q-4 0-4-4 z" fill="url(#text_html_copper)" stroke="#4a3014" stroke-width="1.4"/><rect x="33" y="46" width="62" height="60" rx="8" fill="url(#text_html_recess)" stroke="#3d2a12" stroke-width="1.4"/><circle cx="36.0" cy="18.0" r="2.8" fill="url(#text_html_rivet)" stroke="#3d2a12" stroke-width="0.8"/><circle cx="36.0" cy="112.0" r="2.8" fill="url(#text_html_rivet)" stroke="#3d2a12" stroke-width="0.8"/><circle cx="92.0" cy="112.0" r="2.8" fill="url(#text_html_rivet)" stroke="#3d2a12" stroke-width="0.8"/><g stroke-linecap="round" stroke-linejoin="round" fill="none" stroke="#e9c882" stroke-width="3"><path d="M50 62 l-10 14 10 14"/><path d="M78 62 l10 14 -10 14"/></g></svg>