<svg viewBox="0 0 128 128" xmlns="http://www.w3.org/2000/svg"><defs>
<linearGradient id="document_open_brass" x1="0" y1="0" x2="0.2" y2="1">
 <stop offset="0" stop-color="#f0d79a"/><stop offset="0.45" stop-color="#bd9151"/>
 <stop offset="0.75" stop-color="#8a6230"/><stop offset="1" stop-color="#5c3f1e"/>
</linearGradient>
<radialGradient id="document_open_brassR" cx="0.35" cy="0.28" r="0.85">
 <stop offset="0" stop-color="#f3dca2"/><stop offset="0.5" stop-color="#bd9151"/>
 <stop offset="1" stop-color="#5a3c1c"/>
</radialGradient>
<linearGradient id="document_open_copper" x1="0" y1="0" x2="0.3" y2="1">
 <stop offset="0" stop-color="#e2a06a"/><stop offset="0.5" stop-color="#b06a39"/>
 <stop offset="1" stop-color="#6e3a1a"/>
</linearGradient>
<radialGradient id="document_open_recess" cx="0.5" cy="0.38" r="0.75">
 <stop offset="0" stop-color="#332a1f"/><stop offset="0.7" stop-color="#211a12"/>
 <stop offset="1" stop-color="#100b07"/>
</radialGradient>
<radialGradient id="document_open_rivet" cx="0.35" cy="0.3" r="0.7">
 <stop offset="0" stop-color="#ffeebc"/><stop offset="0.5" stop-color="#c79a58"/>
 <stop offset="1" stop-color="#6b4824"/>
</radialGradient>
<radialGradient id="document_open_glow" cx="0.5" cy="0.5" r="0.5">
 <stop offset="0" stop-color="#ffb15a"/><stop offset="0.5" stop-color="#d97a2a"/>
 <stop offset="1" stop-color="#d97a2a" stop-opacity="0"/>
</radialGradient>
<filter id="document_open_sh" x="-30%" y="-30%" width="160%" height="160%">
 <feDropShadow dx="0" dy="2.5" stdDeviation="2.2" flood-color="#000" flood-opacity="0.55"/>
</filter>
</defs><g transform="rotate(0 64 64)"><path d="M113.6 57.5 L113.6 70.5 L101.7 69.0 L99.1 78.5 L110.2 83.1 L103.7 94.4 L94.1 87.1 L87.1 94.1 L94.4 103.7 L83.1 110.2 L78.5 99.1 L69.0 101.7 L70.5 113.6 L57.5 113.6 L59.0 101.7 L49.5 99.1 L44.9 110.2 L33.6 103.7 L40.9 94.1 L33.9 87.1 L24.3 94.4 L17.8 83.1 L28.9 78.5 L26.3 69.0 L14.4 70.5 L14.4 57.5 L26.3 59.0 L28.9 49.5 L17.8 44.9 L24.3 33.6 L33.9 40.9 L40.9 33.9 L33.6 24.3 L44.9 17.8 L49.5 28.9 L59.0 26.3 L57.5 14.4 L70.5 14.4 L69.0 26.3 L78.5 28.9 L83.1 17.8 L94.4 24.3 L87.1 33.9 L94.1 40.9 L103.7 33.6 L110.2 44.9 L99.1 49.5 L101.7 59.0 Z" fill="url(#document_open_brassR)" stroke="#4a3014" stroke-width="1.2"/><circle cx="64" cy="64" r="23.6" fill="none" stroke="#5a3c1c" stroke-width="1.4" opacity="0.6"/></g><circle cx="64" cy="64" r="33" fill="url(#document_open_brassR)" stroke="#4a3014" stroke-width="2" filter="url(#document_open_sh)"/><circle cx="64" cy="64" r="33" fill="none" stroke="#f6e2ac" stroke-width="1.2" opacity="0.45"/><circle cx="64" cy="64" r="24" fill="url(#document_open_recess)" stroke="#3d2a12" stroke-width="1.6"/><circle cx="103.0" cy="64.0" r="2.6" fill="url(#document_open_rivet)" stroke="#3d2a12" stroke-width="0.8"/><circle cx="91.6" cy="91.6" r="2.6" fill="url(#document_open_rivet)" stroke="#3d2a12" stroke-width="0.8"/><circle cx="64.0" cy="103.0" r="2.6" fill="url(#document_open_rivet)" stroke="#3d2a12" stroke-width="0.8"/><circle cx="36.4" cy="91.6" r="2.6" fill="url(#document_open_rivet)" stroke="#3d2a12" stroke-width="0.8"/><circle cx="25.0" cy="64.0" r="2.6" fill="url(#document_open_rivet)" stroke="#3d2a12" stroke-width="0.8"/><circle cx="36.4" cy="36.4" r="2.6" fill="url(#document_open_rivet)" stroke="#3d2a12" stroke-width="0.8"/><circle cx="64.0" cy="25.0" r="2.6" fill="url(#document_open_rivet)" stroke="#3d2a12" stroke-width="0.8"/><circle cx="91.6" cy="36.4" r="2.6" fill="url(#document_open_rivet)" stroke="#3d2a12" stroke-width="0.8"/><path d="M46 56 h14 l4 5 h18 q3 0 3 3 v4 h-42 v-13 q0 -3 3 -3 z" fill="url(#text_html_copper)" stroke="#4a3014" stroke-width="1.4"/><path d="M44 72 h40 l-5 14 h-40 z" fill="url(#text_html_brassR)" stroke="#4a3014" stroke-width="1.6"/></svg>