<svg viewBox="0 0 128 128" xmlns="http://www.w3.org/2000/svg"><defs>
<linearGradient id="folder_brass" x1="0" y1="0" x2="0.2" y2="1">
 <stop offset="0" stop-color="#f0d79a"/><stop offset="0.45" stop-color="#bd9151"/>
 <stop offset="0.75" stop-color="#8a6230"/><stop offset="1" stop-color="#5c3f1e"/>
</linearGradient>
<radialGradient id="folder_brassR" cx="0.35" cy="0.28" r="0.85">
 <stop offset="0" stop-color="#f3dca2"/><stop offset="0.5" stop-color="#bd9151"/>
 <stop offset="1" stop-color="#5a3c1c"/>
</radialGradient>
<linearGradient id="folder_copper" x1="0" y1="0" x2="0.3" y2="1">
 <stop offset="0" stop-color="#e2a06a"/><stop offset="0.5" stop-color="#b06a39"/>
 <stop offset="1" stop-color="#6e3a1a"/>
</linearGradient>
<radialGradient id="folder_recess" cx="0.5" cy="0.38" r="0.75">
 <stop offset="0" stop-color="#332a1f"/><stop offset="0.7" stop-color="#211a12"/>
 <stop offset="1" stop-color="#100b07"/>
</radialGradient>
<radialGradient id="folder_rivet" cx="0.35" cy="0.3" r="0.7">
 <stop offset="0" stop-color="#ffeebc"/><stop offset="0.5" stop-color="#c79a58"/>
 <stop offset="1" stop-color="#6b4824"/>
</radialGradient>
<radialGradient id="folder_glow" cx="0.5" cy="0.5" r="0.5">
 <stop offset="0" stop-color="#ffb15a"/><stop offset="0.5" stop-color="#d97a2a"/>
 <stop offset="1" stop-color="#d97a2a" stop-opacity="0"/>
</radialGradient>
<filter id="folder_sh" x="-30%" y="-30%" width="160%" height="160%">
 <feDropShadow dx="0" dy="2.5" stdDeviation="2.2" flood-color="#000" flood-opacity="0.55"/>
</filter>
</defs><path d="M16 40 q0-8 8-8 h26 l9 11 h45 q8 0 8 8 v8 h-96 z" fill="url(#folder_copper)" stroke="#4a3014" stroke-width="1.6"/><path d="M14 54 q0-7 7-7 h86 q7 0 7 7 v40 q0 8-8 8 h-84 q-8 0-8-8 z" fill="url(#folder_brass)" stroke="#4a3014" stroke-width="2" filter="url(#folder_sh)"/><rect x="20" y="58" width="88" height="6" rx="3" fill="#f6e2ac" opacity="0.35"/><g transform="rotate(12 101 49)"><path d="M111.8 47.1 L111.8 50.9 L107.9 50.2 L107.1 52.5 L110.5 54.5 L108.1 57.4 L105.5 54.4 L103.4 55.6 L104.8 59.3 L101.0 60.0 L101.0 56.0 L98.6 55.6 L97.2 59.3 L93.9 57.4 L96.5 54.4 L94.9 52.5 L91.5 54.5 L90.2 50.9 L94.1 50.2 L94.1 47.8 L90.2 47.1 L91.5 43.5 L94.9 45.5 L96.5 43.6 L93.9 40.6 L97.2 38.7 L98.6 42.4 L101.0 42.0 L101.0 38.0 L104.8 38.7 L103.4 42.4 L105.5 43.6 L108.1 40.6 L110.5 43.5 L107.1 45.5 L107.9 47.8 Z" fill="url(#folder_brassR)" stroke="#4a3014" stroke-width="1.2"/><circle cx="101" cy="49" r="4.3" fill="none" stroke="#5a3c1c" stroke-width="1.4" opacity="0.6"/><circle cx="101" cy="49" r="3.5" fill="url(#folder_recess)" stroke="#4a3014" stroke-width="1.2"/></g><circle cx="22.0" cy="96.0" r="3" fill="url(#folder_rivet)" stroke="#3d2a12" stroke-width="0.8"/><circle cx="106.0" cy="96.0" r="3" fill="url(#folder_rivet)" stroke="#3d2a12" stroke-width="0.8"/><g transform="rotate(20 64 80)"><path d="M75.8 77.7 L75.8 82.3 L71.4 81.5 L70.2 84.2 L74.0 86.7 L70.7 90.0 L68.2 86.2 L65.5 87.4 L66.3 91.8 L61.7 91.8 L62.5 87.4 L59.8 86.2 L57.3 90.0 L54.0 86.7 L57.8 84.2 L56.6 81.5 L52.2 82.3 L52.2 77.7 L56.6 78.5 L57.8 75.8 L54.0 73.3 L57.3 70.0 L59.8 73.8 L62.5 72.6 L61.7 68.2 L66.3 68.2 L65.5 72.6 L68.2 73.8 L70.7 70.0 L74.0 73.3 L70.2 75.8 L71.4 78.5 Z" fill="url(#folder_brassR)" stroke="#4a3014" stroke-width="1.2"/><circle cx="64" cy="80" r="4.7" fill="none" stroke="#5a3c1c" stroke-width="1.4" opacity="0.6"/><circle cx="64" cy="80" r="4" fill="url(#folder_recess)" stroke="#4a3014" stroke-width="1.2"/></g><g transform="rotate(10 78 86)"><path d="M85.8 84.2 L85.8 87.8 L82.9 87.1 L81.9 89.1 L84.3 91.0 L81.5 93.2 L80.2 90.5 L78.0 91.0 L78.0 94.0 L74.5 93.2 L75.8 90.5 L74.1 89.1 L71.7 91.0 L70.2 87.8 L73.1 87.1 L73.1 84.9 L70.2 84.2 L71.7 81.0 L74.1 82.9 L75.8 81.5 L74.5 78.8 L78.0 78.0 L78.0 81.0 L80.2 81.5 L81.5 78.8 L84.3 81.0 L81.9 82.9 L82.9 84.9 Z" fill="url(#folder_brassR)" stroke="#4a3014" stroke-width="1.2"/><circle cx="78" cy="86" r="3.1" fill="none" stroke="#5a3c1c" stroke-width="1.4" opacity="0.6"/><circle cx="78" cy="86" r="2.5" fill="url(#folder_recess)" stroke="#4a3014" stroke-width="1.2"/></g></svg>