<svg viewBox="0 0 128 128" xmlns="http://www.w3.org/2000/svg"><defs>
<linearGradient id="clock_brass" x1="0" y1="0" x2="0.2" y2="1">
 <stop offset="0" stop-color="#f0d79a"/><stop offset="0.45" stop-color="#bd9151"/>
 <stop offset="0.75" stop-color="#8a6230"/><stop offset="1" stop-color="#5c3f1e"/>
</linearGradient>
<radialGradient id="clock_brassR" cx="0.35" cy="0.28" r="0.85">
 <stop offset="0" stop-color="#f3dca2"/><stop offset="0.5" stop-color="#bd9151"/>
 <stop offset="1" stop-color="#5a3c1c"/>
</radialGradient>
<linearGradient id="clock_copper" x1="0" y1="0" x2="0.3" y2="1">
 <stop offset="0" stop-color="#e2a06a"/><stop offset="0.5" stop-color="#b06a39"/>
 <stop offset="1" stop-color="#6e3a1a"/>
</linearGradient>
<radialGradient id="clock_recess" cx="0.5" cy="0.38" r="0.75">
 <stop offset="0" stop-color="#332a1f"/><stop offset="0.7" stop-color="#211a12"/>
 <stop offset="1" stop-color="#100b07"/>
</radialGradient>
<radialGradient id="clock_rivet" cx="0.35" cy="0.3" r="0.7">
 <stop offset="0" stop-color="#ffeebc"/><stop offset="0.5" stop-color="#c79a58"/>
 <stop offset="1" stop-color="#6b4824"/>
</radialGradient>
<radialGradient id="clock_glow" cx="0.5" cy="0.5" r="0.5">
 <stop offset="0" stop-color="#ffb15a"/><stop offset="0.5" stop-color="#d97a2a"/>
 <stop offset="1" stop-color="#d97a2a" stop-opacity="0"/>
</radialGradient>
<filter id="clock_sh" x="-30%" y="-30%" width="160%" height="160%">
 <feDropShadow dx="0" dy="2.5" stdDeviation="2.2" flood-color="#000" flood-opacity="0.55"/>
</filter>
</defs><rect x="14" y="14" width="100" height="100" rx="24" fill="url(#clock_brass)" stroke="#4a3014" stroke-width="2" filter="url(#clock_sh)"/><rect x="20" y="20" width="88" height="88" rx="19" fill="none" stroke="#f6e2ac" stroke-width="1.4" opacity="0.5"/><rect x="30" y="30" width="68" height="68" rx="14" fill="url(#clock_recess)" stroke="#3d2a12" stroke-width="1.6"/><circle cx="26.0" cy="26.0" r="3.6" fill="url(#clock_rivet)" stroke="#3d2a12" stroke-width="0.8"/><circle cx="102.0" cy="26.0" r="3.6" fill="url(#clock_rivet)" stroke="#3d2a12" stroke-width="0.8"/><circle cx="26.0" cy="102.0" r="3.6" fill="url(#clock_rivet)" stroke="#3d2a12" stroke-width="0.8"/><circle cx="102.0" cy="102.0" r="3.6" fill="url(#clock_rivet)" stroke="#3d2a12" stroke-width="0.8"/><g transform="rotate(0 64 64)"><path d="M89.8 60.6 L89.8 67.4 L83.8 66.6 L82.5 71.7 L88.0 73.9 L84.6 79.8 L79.9 76.2 L76.2 79.9 L79.8 84.6 L73.9 88.0 L71.7 82.5 L66.6 83.8 L67.4 89.8 L60.6 89.8 L61.4 83.8 L56.3 82.5 L54.1 88.0 L48.2 84.6 L51.8 79.9 L48.1 76.2 L43.4 79.8 L40.0 73.9 L45.5 71.7 L44.2 66.6 L38.2 67.4 L38.2 60.6 L44.2 61.4 L45.5 56.3 L40.0 54.1 L43.4 48.2 L48.1 51.8 L51.8 48.1 L48.2 43.4 L54.1 40.0 L56.3 45.5 L61.4 44.2 L60.6 38.2 L67.4 38.2 L66.6 44.2 L71.7 45.5 L73.9 40.0 L79.8 43.4 L76.2 48.1 L79.9 51.8 L84.6 48.2 L88.0 54.1 L82.5 56.3 L83.8 61.4 Z" fill="url(#clock_brassR)" stroke="#4a3014" stroke-width="1.2"/><circle cx="64" cy="64" r="12.4" fill="none" stroke="#5a3c1c" stroke-width="1.4" opacity="0.6"/></g><circle cx="64" cy="64" r="20" fill="url(#clock_recess)" stroke="#3d2a12" stroke-width="1.6"/><path d="M64 64 v-12 M64 64 l9 5" stroke-linecap="round" stroke-linejoin="round" fill="none" stroke="#ffb15a" stroke-width="3"/><circle cx="64" cy="64" r="2.5" fill="#e9c882"/></svg>