<svg viewBox="0 0 128 128" xmlns="http://www.w3.org/2000/svg"><defs>
<linearGradient id="cpu_brass" x1="0" y1="0" x2="0.2" y2="1">
 <stop offset="0" stop-color="#f0d79a"/><stop offset="0.45" stop-color="#bd9151"/>
 <stop offset="0.75" stop-color="#8a6230"/><stop offset="1" stop-color="#5c3f1e"/>
</linearGradient>
<radialGradient id="cpu_brassR" cx="0.35" cy="0.28" r="0.85">
 <stop offset="0" stop-color="#f3dca2"/><stop offset="0.5" stop-color="#bd9151"/>
 <stop offset="1" stop-color="#5a3c1c"/>
</radialGradient>
<linearGradient id="cpu_copper" x1="0" y1="0" x2="0.3" y2="1">
 <stop offset="0" stop-color="#e2a06a"/><stop offset="0.5" stop-color="#b06a39"/>
 <stop offset="1" stop-color="#6e3a1a"/>
</linearGradient>
<radialGradient id="cpu_recess" cx="0.5" cy="0.38" r="0.75">
 <stop offset="0" stop-color="#332a1f"/><stop offset="0.7" stop-color="#211a12"/>
 <stop offset="1" stop-color="#100b07"/>
</radialGradient>
<radialGradient id="cpu_rivet" cx="0.35" cy="0.3" r="0.7">
 <stop offset="0" stop-color="#ffeebc"/><stop offset="0.5" stop-color="#c79a58"/>
 <stop offset="1" stop-color="#6b4824"/>
</radialGradient>
<radialGradient id="cpu_glow" cx="0.5" cy="0.5" r="0.5">
 <stop offset="0" stop-color="#ffb15a"/><stop offset="0.5" stop-color="#d97a2a"/>
 <stop offset="1" stop-color="#d97a2a" stop-opacity="0"/>
</radialGradient>
<filter id="cpu_sh" x="-30%" y="-30%" width="160%" height="160%">
 <feDropShadow dx="0" dy="2.5" stdDeviation="2.2" flood-color="#000" flood-opacity="0.55"/>
</filter>
</defs><g filter="url(#cpu_sh)"><g transform="translate(64,64) scale(1.22) translate(-50,-50)"><rect x="17" y="6" width="6" height="11" rx="1.5" fill="url(#cpu_brass)" stroke="#4a3014" stroke-width="0.6"/><rect x="17" y="83" width="6" height="11" rx="1.5" fill="url(#cpu_brass)" stroke="#4a3014" stroke-width="0.6"/><rect x="6" y="17" width="11" height="6" rx="1.5" fill="url(#cpu_brass)" stroke="#4a3014" stroke-width="0.6"/><rect x="83" y="17" width="11" height="6" rx="1.5" fill="url(#cpu_brass)" stroke="#4a3014" stroke-width="0.6"/><rect x="27" y="6" width="6" height="11" rx="1.5" fill="url(#cpu_brass)" stroke="#4a3014" stroke-width="0.6"/><rect x="27" y="83" width="6" height="11" rx="1.5" fill="url(#cpu_brass)" stroke="#4a3014" stroke-width="0.6"/><rect x="6" y="27" width="11" height="6" rx="1.5" fill="url(#cpu_brass)" stroke="#4a3014" stroke-width="0.6"/><rect x="83" y="27" width="11" height="6" rx="1.5" fill="url(#cpu_brass)" stroke="#4a3014" stroke-width="0.6"/><rect x="37" y="6" width="6" height="11" rx="1.5" fill="url(#cpu_brass)" stroke="#4a3014" stroke-width="0.6"/><rect x="37" y="83" width="6" height="11" rx="1.5" fill="url(#cpu_brass)" stroke="#4a3014" stroke-width="0.6"/><rect x="6" y="37" width="11" height="6" rx="1.5" fill="url(#cpu_brass)" stroke="#4a3014" stroke-width="0.6"/><rect x="83" y="37" width="11" height="6" rx="1.5" fill="url(#cpu_brass)" stroke="#4a3014" stroke-width="0.6"/><rect x="47" y="6" width="6" height="11" rx="1.5" fill="url(#cpu_brass)" stroke="#4a3014" stroke-width="0.6"/><rect x="47" y="83" width="6" height="11" rx="1.5" fill="url(#cpu_brass)" stroke="#4a3014" stroke-width="0.6"/><rect x="6" y="47" width="11" height="6" rx="1.5" fill="url(#cpu_brass)" stroke="#4a3014" stroke-width="0.6"/><rect x="83" y="47" width="11" height="6" rx="1.5" fill="url(#cpu_brass)" stroke="#4a3014" stroke-width="0.6"/><rect x="57" y="6" width="6" height="11" rx="1.5" fill="url(#cpu_brass)" stroke="#4a3014" stroke-width="0.6"/><rect x="57" y="83" width="6" height="11" rx="1.5" fill="url(#cpu_brass)" stroke="#4a3014" stroke-width="0.6"/><rect x="6" y="57" width="11" height="6" rx="1.5" fill="url(#cpu_brass)" stroke="#4a3014" stroke-width="0.6"/><rect x="83" y="57" width="11" height="6" rx="1.5" fill="url(#cpu_brass)" stroke="#4a3014" stroke-width="0.6"/><rect x="67" y="6" width="6" height="11" rx="1.5" fill="url(#cpu_brass)" stroke="#4a3014" stroke-width="0.6"/><rect x="67" y="83" width="6" height="11" rx="1.5" fill="url(#cpu_brass)" stroke="#4a3014" stroke-width="0.6"/><rect x="6" y="67" width="11" height="6" rx="1.5" fill="url(#cpu_brass)" stroke="#4a3014" stroke-width="0.6"/><rect x="83" y="67" width="11" height="6" rx="1.5" fill="url(#cpu_brass)" stroke="#4a3014" stroke-width="0.6"/><rect x="14" y="14" width="72" height="72" rx="10" fill="url(#cpu_brass)" stroke="#4a3014" stroke-width="2"/><rect x="24" y="24" width="52" height="52" rx="7" fill="url(#cpu_recess)" stroke="#3d2a12" stroke-width="1.6"/><circle cx="32" cy="32" r="3" fill="none" stroke="#7a5a2e" stroke-width="1.4"/><g transform="rotate(12 50 50)"><path d="M60.8 47.9 L60.8 52.1 L56.9 51.4 L55.8 53.9 L59.1 56.1 L56.1 59.1 L53.9 55.8 L51.4 56.9 L52.1 60.8 L47.9 60.8 L48.6 56.9 L46.1 55.8 L43.9 59.1 L40.9 56.1 L44.2 53.9 L43.1 51.4 L39.2 52.1 L39.2 47.9 L43.1 48.6 L44.2 46.1 L40.9 43.9 L43.9 40.9 L46.1 44.2 L48.6 43.1 L47.9 39.2 L52.1 39.2 L51.4 43.1 L53.9 44.2 L56.1 40.9 L59.1 43.9 L55.8 46.1 L56.9 48.6 Z" fill="url(#cpu_brassR)" stroke="#4a3014" stroke-width="1.2"/><circle cx="50" cy="50" r="4.3" fill="none" stroke="#5a3c1c" stroke-width="1.4" opacity="0.6"/><circle cx="50" cy="50" r="3.5" fill="url(#cpu_recess)" stroke="#4a3014" stroke-width="1.2"/></g></g></g></svg>