<svg viewBox="0 0 128 128" xmlns="http://www.w3.org/2000/svg"><defs>
<linearGradient id="weather_clear_brass" x1="0" y1="0" x2="0.2" y2="1">
 <stop offset="0" stop-color="#f0d79a"/><stop offset="0.45" stop-color="#bd9151"/>
 <stop offset="0.75" stop-color="#8a6230"/><stop offset="1" stop-color="#5c3f1e"/>
</linearGradient>
<radialGradient id="weather_clear_brassR" cx="0.35" cy="0.28" r="0.85">
 <stop offset="0" stop-color="#f3dca2"/><stop offset="0.5" stop-color="#bd9151"/>
 <stop offset="1" stop-color="#5a3c1c"/>
</radialGradient>
<linearGradient id="weather_clear_copper" x1="0" y1="0" x2="0.3" y2="1">
 <stop offset="0" stop-color="#e2a06a"/><stop offset="0.5" stop-color="#b06a39"/>
 <stop offset="1" stop-color="#6e3a1a"/>
</linearGradient>
<radialGradient id="weather_clear_recess" cx="0.5" cy="0.38" r="0.75">
 <stop offset="0" stop-color="#332a1f"/><stop offset="0.7" stop-color="#211a12"/>
 <stop offset="1" stop-color="#100b07"/>
</radialGradient>
<radialGradient id="weather_clear_rivet" cx="0.35" cy="0.3" r="0.7">
 <stop offset="0" stop-color="#ffeebc"/><stop offset="0.5" stop-color="#c79a58"/>
 <stop offset="1" stop-color="#6b4824"/>
</radialGradient>
<radialGradient id="weather_clear_glow" cx="0.5" cy="0.5" r="0.5">
 <stop offset="0" stop-color="#ffb15a"/><stop offset="0.5" stop-color="#d97a2a"/>
 <stop offset="1" stop-color="#d97a2a" stop-opacity="0"/>
</radialGradient>
<filter id="weather_clear_sh" x="-30%" y="-30%" width="160%" height="160%">
 <feDropShadow dx="0" dy="2.5" stdDeviation="2.2" flood-color="#000" flood-opacity="0.55"/>
</filter>
</defs><rect x="14" y="14" width="100" height="100" rx="24" fill="url(#weather_clear_brass)" stroke="#4a3014" stroke-width="2" filter="url(#weather_clear_sh)"/><rect x="20" y="20" width="88" height="88" rx="19" fill="none" stroke="#f6e2ac" stroke-width="1.4" opacity="0.5"/><rect x="30" y="30" width="68" height="68" rx="14" fill="url(#weather_clear_recess)" stroke="#3d2a12" stroke-width="1.6"/><circle cx="26.0" cy="26.0" r="3.6" fill="url(#weather_clear_rivet)" stroke="#3d2a12" stroke-width="0.8"/><circle cx="102.0" cy="26.0" r="3.6" fill="url(#weather_clear_rivet)" stroke="#3d2a12" stroke-width="0.8"/><circle cx="26.0" cy="102.0" r="3.6" fill="url(#weather_clear_rivet)" stroke="#3d2a12" stroke-width="0.8"/><circle cx="102.0" cy="102.0" r="3.6" fill="url(#weather_clear_rivet)" stroke="#3d2a12" stroke-width="0.8"/><g transform="rotate(0 58 58)"><path d="M66.8 56.2 L66.8 59.8 L63.9 59.2 L63.0 61.3 L65.5 63.0 L63.0 65.5 L61.3 63.0 L59.2 63.9 L59.8 66.8 L56.2 66.8 L56.8 63.9 L54.7 63.0 L53.0 65.5 L50.5 63.0 L53.0 61.3 L52.1 59.2 L49.2 59.8 L49.2 56.2 L52.1 56.8 L53.0 54.7 L50.5 53.0 L53.0 50.5 L54.7 53.0 L56.8 52.1 L56.2 49.2 L59.8 49.2 L59.2 52.1 L61.3 53.0 L63.0 50.5 L65.5 53.0 L63.0 54.7 L63.9 56.8 Z" fill="url(#weather_clear_brassR)" stroke="#4a3014" stroke-width="1.2"/><circle cx="58" cy="58" r="3.7" fill="none" stroke="#5a3c1c" stroke-width="1.4" opacity="0.6"/></g><circle cx="58" cy="58" r="11" fill="#ffb15a"/><path d="M60 78 a13 9 0 0 0 18 0 a13 9 0 0 0 -22 -3" fill="url(#weather_clear_brassR)" stroke="#4a3014" stroke-width="1.4"/></svg>