<svg viewBox="0 0 128 128" xmlns="http://www.w3.org/2000/svg"><defs>
<linearGradient id="preferences_system_brass" x1="0" y1="0" x2="0.2" y2="1">
 <stop offset="0" stop-color="#f0d79a"/><stop offset="0.45" stop-color="#bd9151"/>
 <stop offset="0.75" stop-color="#8a6230"/><stop offset="1" stop-color="#5c3f1e"/>
</linearGradient>
<radialGradient id="preferences_system_brassR" cx="0.35" cy="0.28" r="0.85">
 <stop offset="0" stop-color="#f3dca2"/><stop offset="0.5" stop-color="#bd9151"/>
 <stop offset="1" stop-color="#5a3c1c"/>
</radialGradient>
<linearGradient id="preferences_system_copper" x1="0" y1="0" x2="0.3" y2="1">
 <stop offset="0" stop-color="#e2a06a"/><stop offset="0.5" stop-color="#b06a39"/>
 <stop offset="1" stop-color="#6e3a1a"/>
</linearGradient>
<radialGradient id="preferences_system_recess" cx="0.5" cy="0.38" r="0.75">
 <stop offset="0" stop-color="#332a1f"/><stop offset="0.7" stop-color="#211a12"/>
 <stop offset="1" stop-color="#100b07"/>
</radialGradient>
<radialGradient id="preferences_system_rivet" cx="0.35" cy="0.3" r="0.7">
 <stop offset="0" stop-color="#ffeebc"/><stop offset="0.5" stop-color="#c79a58"/>
 <stop offset="1" stop-color="#6b4824"/>
</radialGradient>
<radialGradient id="preferences_system_glow" cx="0.5" cy="0.5" r="0.5">
 <stop offset="0" stop-color="#ffb15a"/><stop offset="0.5" stop-color="#d97a2a"/>
 <stop offset="1" stop-color="#d97a2a" stop-opacity="0"/>
</radialGradient>
<filter id="preferences_system_sh" x="-30%" y="-30%" width="160%" height="160%">
 <feDropShadow dx="0" dy="2.5" stdDeviation="2.2" flood-color="#000" flood-opacity="0.55"/>
</filter>
</defs><rect x="14" y="14" width="100" height="100" rx="24" fill="url(#preferences_system_brass)" stroke="#4a3014" stroke-width="2" filter="url(#preferences_system_sh)"/><rect x="20" y="20" width="88" height="88" rx="19" fill="none" stroke="#f6e2ac" stroke-width="1.4" opacity="0.5"/><rect x="30" y="30" width="68" height="68" rx="14" fill="url(#preferences_system_recess)" stroke="#3d2a12" stroke-width="1.6"/><circle cx="26.0" cy="26.0" r="3.6" fill="url(#preferences_system_rivet)" stroke="#3d2a12" stroke-width="0.8"/><circle cx="102.0" cy="26.0" r="3.6" fill="url(#preferences_system_rivet)" stroke="#3d2a12" stroke-width="0.8"/><circle cx="26.0" cy="102.0" r="3.6" fill="url(#preferences_system_rivet)" stroke="#3d2a12" stroke-width="0.8"/><circle cx="102.0" cy="102.0" r="3.6" fill="url(#preferences_system_rivet)" stroke="#3d2a12" stroke-width="0.8"/><g transform="rotate(0 64 64)"><path d="M85.7 60.6 L85.7 67.4 L78.8 66.3 L77.4 70.8 L83.6 74.0 L79.6 79.6 L74.6 74.6 L70.8 77.4 L74.0 83.6 L67.4 85.7 L66.3 78.8 L61.7 78.8 L60.6 85.7 L54.0 83.6 L57.2 77.4 L53.4 74.6 L48.4 79.6 L44.4 74.0 L50.6 70.8 L49.2 66.3 L42.3 67.4 L42.3 60.6 L49.2 61.7 L50.6 57.2 L44.4 54.0 L48.4 48.4 L53.4 53.4 L57.2 50.6 L54.0 44.4 L60.6 42.3 L61.7 49.2 L66.3 49.2 L67.4 42.3 L74.0 44.4 L70.8 50.6 L74.6 53.4 L79.6 48.4 L83.6 54.0 L77.4 57.2 L78.8 61.7 Z" fill="url(#preferences_system_brassR)" stroke="#4a3014" stroke-width="1.2"/><circle cx="64" cy="64" r="9.3" fill="none" stroke="#5a3c1c" stroke-width="1.4" opacity="0.6"/><circle cx="64" cy="64" r="8" fill="url(#preferences_system_recess)" stroke="#4a3014" stroke-width="1.2"/></g><g transform="rotate(15 82 82)"><path d="M92.8 79.9 L92.8 84.1 L88.9 83.4 L87.8 85.9 L91.1 88.1 L88.1 91.1 L85.9 87.8 L83.4 88.9 L84.1 92.8 L79.9 92.8 L80.6 88.9 L78.1 87.8 L75.9 91.1 L72.9 88.1 L76.2 85.9 L75.1 83.4 L71.2 84.1 L71.2 79.9 L75.1 80.6 L76.2 78.1 L72.9 75.9 L75.9 72.9 L78.1 76.2 L80.6 75.1 L79.9 71.2 L84.1 71.2 L83.4 75.1 L85.9 76.2 L88.1 72.9 L91.1 75.9 L87.8 78.1 L88.9 80.6 Z" fill="url(#preferences_system_brassR)" stroke="#4a3014" stroke-width="1.2"/><circle cx="82" cy="82" r="4.3" fill="none" stroke="#5a3c1c" stroke-width="1.4" opacity="0.6"/><circle cx="82" cy="82" r="3.5" fill="url(#preferences_system_recess)" stroke="#4a3014" stroke-width="1.2"/></g></svg>