<svg viewBox="0 0 128 128" xmlns="http://www.w3.org/2000/svg"><defs>
<linearGradient id="preferences_network_brass" x1="0" y1="0" x2="0.2" y2="1">
 <stop offset="0" stop-color="#f0d79a"/><stop offset="0.45" stop-color="#bd9151"/>
 <stop offset="0.75" stop-color="#8a6230"/><stop offset="1" stop-color="#5c3f1e"/>
</linearGradient>
<radialGradient id="preferences_network_brassR" cx="0.35" cy="0.28" r="0.85">
 <stop offset="0" stop-color="#f3dca2"/><stop offset="0.5" stop-color="#bd9151"/>
 <stop offset="1" stop-color="#5a3c1c"/>
</radialGradient>
<linearGradient id="preferences_network_copper" x1="0" y1="0" x2="0.3" y2="1">
 <stop offset="0" stop-color="#e2a06a"/><stop offset="0.5" stop-color="#b06a39"/>
 <stop offset="1" stop-color="#6e3a1a"/>
</linearGradient>
<radialGradient id="preferences_network_recess" cx="0.5" cy="0.38" r="0.75">
 <stop offset="0" stop-color="#332a1f"/><stop offset="0.7" stop-color="#211a12"/>
 <stop offset="1" stop-color="#100b07"/>
</radialGradient>
<radialGradient id="preferences_network_rivet" cx="0.35" cy="0.3" r="0.7">
 <stop offset="0" stop-color="#ffeebc"/><stop offset="0.5" stop-color="#c79a58"/>
 <stop offset="1" stop-color="#6b4824"/>
</radialGradient>
<radialGradient id="preferences_network_glow" cx="0.5" cy="0.5" r="0.5">
 <stop offset="0" stop-color="#ffb15a"/><stop offset="0.5" stop-color="#d97a2a"/>
 <stop offset="1" stop-color="#d97a2a" stop-opacity="0"/>
</radialGradient>
<filter id="preferences_network_sh" x="-30%" y="-30%" width="160%" height="160%">
 <feDropShadow dx="0" dy="2.5" stdDeviation="2.2" flood-color="#000" flood-opacity="0.55"/>
</filter>
</defs><rect x="14" y="14" width="100" height="100" rx="24" fill="url(#preferences_network_brass)" stroke="#4a3014" stroke-width="2" filter="url(#preferences_network_sh)"/><rect x="20" y="20" width="88" height="88" rx="19" fill="none" stroke="#f6e2ac" stroke-width="1.4" opacity="0.5"/><rect x="30" y="30" width="68" height="68" rx="14" fill="url(#preferences_network_recess)" stroke="#3d2a12" stroke-width="1.6"/><circle cx="26.0" cy="26.0" r="3.6" fill="url(#preferences_network_rivet)" stroke="#3d2a12" stroke-width="0.8"/><circle cx="102.0" cy="26.0" r="3.6" fill="url(#preferences_network_rivet)" stroke="#3d2a12" stroke-width="0.8"/><circle cx="26.0" cy="102.0" r="3.6" fill="url(#preferences_network_rivet)" stroke="#3d2a12" stroke-width="0.8"/><circle cx="102.0" cy="102.0" r="3.6" fill="url(#preferences_network_rivet)" stroke="#3d2a12" stroke-width="0.8"/><g transform="rotate(10 70 58)"><path d="M80.8 55.9 L80.8 60.1 L76.9 59.4 L75.8 61.9 L79.1 64.1 L76.1 67.1 L73.9 63.8 L71.4 64.9 L72.1 68.8 L67.9 68.8 L68.6 64.9 L66.1 63.8 L63.9 67.1 L60.9 64.1 L64.2 61.9 L63.1 59.4 L59.2 60.1 L59.2 55.9 L63.1 56.6 L64.2 54.1 L60.9 51.9 L63.9 48.9 L66.1 52.2 L68.6 51.1 L67.9 47.2 L72.1 47.2 L71.4 51.1 L73.9 52.2 L76.1 48.9 L79.1 51.9 L75.8 54.1 L76.9 56.6 Z" fill="url(#preferences_network_brassR)" stroke="#4a3014" stroke-width="1.2"/><circle cx="70" cy="58" r="4.3" fill="none" stroke="#5a3c1c" stroke-width="1.4" opacity="0.6"/><circle cx="70" cy="58" r="3" fill="url(#preferences_network_recess)" stroke="#4a3014" stroke-width="1.2"/></g><g fill="url(#preferences_network_brassR)" stroke="#4a3014" stroke-width="1.4"><circle cx="50" cy="76" r="7"/><circle cx="78" cy="80" r="7"/></g><path d="M58 62 l-6 8 M64 64 l12 12" stroke="#e9c882" stroke-width="2.5"/></svg>