<svg viewBox="0 0 128 128" xmlns="http://www.w3.org/2000/svg"><defs>
<linearGradient id="applications_system_brass" x1="0" y1="0" x2="0.2" y2="1">
 <stop offset="0" stop-color="#f0d79a"/><stop offset="0.45" stop-color="#bd9151"/>
 <stop offset="0.75" stop-color="#8a6230"/><stop offset="1" stop-color="#5c3f1e"/>
</linearGradient>
<radialGradient id="applications_system_brassR" cx="0.35" cy="0.28" r="0.85">
 <stop offset="0" stop-color="#f3dca2"/><stop offset="0.5" stop-color="#bd9151"/>
 <stop offset="1" stop-color="#5a3c1c"/>
</radialGradient>
<linearGradient id="applications_system_copper" x1="0" y1="0" x2="0.3" y2="1">
 <stop offset="0" stop-color="#e2a06a"/><stop offset="0.5" stop-color="#b06a39"/>
 <stop offset="1" stop-color="#6e3a1a"/>
</linearGradient>
<radialGradient id="applications_system_recess" cx="0.5" cy="0.38" r="0.75">
 <stop offset="0" stop-color="#332a1f"/><stop offset="0.7" stop-color="#211a12"/>
 <stop offset="1" stop-color="#100b07"/>
</radialGradient>
<radialGradient id="applications_system_rivet" cx="0.35" cy="0.3" r="0.7">
 <stop offset="0" stop-color="#ffeebc"/><stop offset="0.5" stop-color="#c79a58"/>
 <stop offset="1" stop-color="#6b4824"/>
</radialGradient>
<radialGradient id="applications_system_glow" cx="0.5" cy="0.5" r="0.5">
 <stop offset="0" stop-color="#ffb15a"/><stop offset="0.5" stop-color="#d97a2a"/>
 <stop offset="1" stop-color="#d97a2a" stop-opacity="0"/>
</radialGradient>
<filter id="applications_system_sh" x="-30%" y="-30%" width="160%" height="160%">
 <feDropShadow dx="0" dy="2.5" stdDeviation="2.2" flood-color="#000" flood-opacity="0.55"/>
</filter>
</defs><rect x="14" y="14" width="100" height="100" rx="24" fill="url(#applications_system_brass)" stroke="#4a3014" stroke-width="2" filter="url(#applications_system_sh)"/><rect x="20" y="20" width="88" height="88" rx="19" fill="none" stroke="#f6e2ac" stroke-width="1.4" opacity="0.5"/><rect x="30" y="30" width="68" height="68" rx="14" fill="url(#applications_system_recess)" stroke="#3d2a12" stroke-width="1.6"/><circle cx="26.0" cy="26.0" r="3.6" fill="url(#applications_system_rivet)" stroke="#3d2a12" stroke-width="0.8"/><circle cx="102.0" cy="26.0" r="3.6" fill="url(#applications_system_rivet)" stroke="#3d2a12" stroke-width="0.8"/><circle cx="26.0" cy="102.0" r="3.6" fill="url(#applications_system_rivet)" stroke="#3d2a12" stroke-width="0.8"/><circle cx="102.0" cy="102.0" r="3.6" fill="url(#applications_system_rivet)" stroke="#3d2a12" stroke-width="0.8"/><rect x="48" y="42" width="32" height="44" rx="4" fill="url(#applications_system_brassR)" stroke="#4a3014" stroke-width="1.6"/><g stroke="#3d2a12" stroke-width="2.4"><path d="M54 50 h20 M54 56 h20 M54 62 h20"/></g><circle cx="64" cy="76" r="4" fill="#ffb15a"/><g transform="rotate(12 80 82)"><path d="M88.8 80.2 L88.8 83.8 L85.4 83.1 L84.6 85.1 L87.5 87.0 L85.0 89.5 L83.1 86.6 L81.1 87.4 L81.8 90.8 L78.2 90.8 L78.9 87.4 L76.9 86.6 L75.0 89.5 L72.5 87.0 L75.4 85.1 L74.6 83.1 L71.2 83.8 L71.2 80.2 L74.6 80.9 L75.4 78.9 L72.5 77.0 L75.0 74.5 L76.9 77.4 L78.9 76.6 L78.2 73.2 L81.8 73.2 L81.1 76.6 L83.1 77.4 L85.0 74.5 L87.5 77.0 L84.6 78.9 L85.4 80.9 Z" fill="url(#applications_system_brassR)" stroke="#4a3014" stroke-width="1.2"/><circle cx="80" cy="82" r="3.4" fill="none" stroke="#5a3c1c" stroke-width="1.4" opacity="0.6"/><circle cx="80" cy="82" r="3" fill="url(#applications_system_recess)" stroke="#4a3014" stroke-width="1.2"/></g></svg>