<svg viewBox="0 0 128 128" xmlns="http://www.w3.org/2000/svg"><defs>
<linearGradient id="applications_graphics_brass" x1="0" y1="0" x2="0.2" y2="1">
 <stop offset="0" stop-color="#f0d79a"/><stop offset="0.45" stop-color="#bd9151"/>
 <stop offset="0.75" stop-color="#8a6230"/><stop offset="1" stop-color="#5c3f1e"/>
</linearGradient>
<radialGradient id="applications_graphics_brassR" cx="0.35" cy="0.28" r="0.85">
 <stop offset="0" stop-color="#f3dca2"/><stop offset="0.5" stop-color="#bd9151"/>
 <stop offset="1" stop-color="#5a3c1c"/>
</radialGradient>
<linearGradient id="applications_graphics_copper" x1="0" y1="0" x2="0.3" y2="1">
 <stop offset="0" stop-color="#e2a06a"/><stop offset="0.5" stop-color="#b06a39"/>
 <stop offset="1" stop-color="#6e3a1a"/>
</linearGradient>
<radialGradient id="applications_graphics_recess" cx="0.5" cy="0.38" r="0.75">
 <stop offset="0" stop-color="#332a1f"/><stop offset="0.7" stop-color="#211a12"/>
 <stop offset="1" stop-color="#100b07"/>
</radialGradient>
<radialGradient id="applications_graphics_rivet" cx="0.35" cy="0.3" r="0.7">
 <stop offset="0" stop-color="#ffeebc"/><stop offset="0.5" stop-color="#c79a58"/>
 <stop offset="1" stop-color="#6b4824"/>
</radialGradient>
<radialGradient id="applications_graphics_glow" cx="0.5" cy="0.5" r="0.5">
 <stop offset="0" stop-color="#ffb15a"/><stop offset="0.5" stop-color="#d97a2a"/>
 <stop offset="1" stop-color="#d97a2a" stop-opacity="0"/>
</radialGradient>
<filter id="applications_graphics_sh" x="-30%" y="-30%" width="160%" height="160%">
 <feDropShadow dx="0" dy="2.5" stdDeviation="2.2" flood-color="#000" flood-opacity="0.55"/>
</filter>
</defs><rect x="14" y="14" width="100" height="100" rx="24" fill="url(#applications_graphics_brass)" stroke="#4a3014" stroke-width="2" filter="url(#applications_graphics_sh)"/><rect x="20" y="20" width="88" height="88" rx="19" fill="none" stroke="#f6e2ac" stroke-width="1.4" opacity="0.5"/><rect x="30" y="30" width="68" height="68" rx="14" fill="url(#applications_graphics_recess)" stroke="#3d2a12" stroke-width="1.6"/><circle cx="26.0" cy="26.0" r="3.6" fill="url(#applications_graphics_rivet)" stroke="#3d2a12" stroke-width="0.8"/><circle cx="102.0" cy="26.0" r="3.6" fill="url(#applications_graphics_rivet)" stroke="#3d2a12" stroke-width="0.8"/><circle cx="26.0" cy="102.0" r="3.6" fill="url(#applications_graphics_rivet)" stroke="#3d2a12" stroke-width="0.8"/><circle cx="102.0" cy="102.0" r="3.6" fill="url(#applications_graphics_rivet)" stroke="#3d2a12" stroke-width="0.8"/><path d="M62 42 q24 0 24 19 q0 11-11 11 q-6 0-6 5 q0 6-9 6 q-22 0-22-22 q0-19 24-19 z" fill="url(#applications_graphics_brassR)" stroke="#4a3014" stroke-width="1.6"/><circle cx="54" cy="54" r="3.5" fill="#ffb15a"/><circle cx="70" cy="52" r="3.5" fill="#e2a06a"/><circle cx="76" cy="64" r="3.5" fill="#7a8a3d"/><circle cx="56" cy="70" r="3.5" fill="#4a8a7a"/></svg>