<svg viewBox="0 0 128 128" xmlns="http://www.w3.org/2000/svg"><defs>
<linearGradient id="applications_development_brass" x1="0" y1="0" x2="0.2" y2="1">
 <stop offset="0" stop-color="#f0d79a"/><stop offset="0.45" stop-color="#bd9151"/>
 <stop offset="0.75" stop-color="#8a6230"/><stop offset="1" stop-color="#5c3f1e"/>
</linearGradient>
<radialGradient id="applications_development_brassR" cx="0.35" cy="0.28" r="0.85">
 <stop offset="0" stop-color="#f3dca2"/><stop offset="0.5" stop-color="#bd9151"/>
 <stop offset="1" stop-color="#5a3c1c"/>
</radialGradient>
<linearGradient id="applications_development_copper" x1="0" y1="0" x2="0.3" y2="1">
 <stop offset="0" stop-color="#e2a06a"/><stop offset="0.5" stop-color="#b06a39"/>
 <stop offset="1" stop-color="#6e3a1a"/>
</linearGradient>
<radialGradient id="applications_development_recess" cx="0.5" cy="0.38" r="0.75">
 <stop offset="0" stop-color="#332a1f"/><stop offset="0.7" stop-color="#211a12"/>
 <stop offset="1" stop-color="#100b07"/>
</radialGradient>
<radialGradient id="applications_development_rivet" cx="0.35" cy="0.3" r="0.7">
 <stop offset="0" stop-color="#ffeebc"/><stop offset="0.5" stop-color="#c79a58"/>
 <stop offset="1" stop-color="#6b4824"/>
</radialGradient>
<radialGradient id="applications_development_glow" cx="0.5" cy="0.5" r="0.5">
 <stop offset="0" stop-color="#ffb15a"/><stop offset="0.5" stop-color="#d97a2a"/>
 <stop offset="1" stop-color="#d97a2a" stop-opacity="0"/>
</radialGradient>
<filter id="applications_development_sh" x="-30%" y="-30%" width="160%" height="160%">
 <feDropShadow dx="0" dy="2.5" stdDeviation="2.2" flood-color="#000" flood-opacity="0.55"/>
</filter>
</defs><rect x="14" y="14" width="100" height="100" rx="24" fill="url(#applications_development_brass)" stroke="#4a3014" stroke-width="2" filter="url(#applications_development_sh)"/><rect x="20" y="20" width="88" height="88" rx="19" fill="none" stroke="#f6e2ac" stroke-width="1.4" opacity="0.5"/><rect x="30" y="30" width="68" height="68" rx="14" fill="url(#applications_development_recess)" stroke="#3d2a12" stroke-width="1.6"/><circle cx="26.0" cy="26.0" r="3.6" fill="url(#applications_development_rivet)" stroke="#3d2a12" stroke-width="0.8"/><circle cx="102.0" cy="26.0" r="3.6" fill="url(#applications_development_rivet)" stroke="#3d2a12" stroke-width="0.8"/><circle cx="26.0" cy="102.0" r="3.6" fill="url(#applications_development_rivet)" stroke="#3d2a12" stroke-width="0.8"/><circle cx="102.0" cy="102.0" r="3.6" fill="url(#applications_development_rivet)" stroke="#3d2a12" stroke-width="0.8"/><g stroke-linecap="round" stroke-linejoin="round" fill="none" stroke="#e9c882" stroke-width="4"><path d="M52 50 l-12 14 12 14"/><path d="M76 50 l12 14 -12 14"/></g><g transform="rotate(12 82 46)"><path d="M89.8 44.4 L89.8 47.6 L86.9 47.0 L86.2 48.8 L88.7 50.4 L86.4 52.7 L84.8 50.2 L83.0 50.9 L83.6 53.8 L80.4 53.8 L81.0 50.9 L79.2 50.2 L77.6 52.7 L75.3 50.4 L77.8 48.8 L77.1 47.0 L74.2 47.6 L74.2 44.4 L77.1 45.0 L77.8 43.2 L75.3 41.6 L77.6 39.3 L79.2 41.8 L81.0 41.1 L80.4 38.2 L83.6 38.2 L83.0 41.1 L84.8 41.8 L86.4 39.3 L88.7 41.6 L86.2 43.2 L86.9 45.0 Z" fill="url(#applications_development_brassR)" stroke="#4a3014" stroke-width="1.2"/><circle cx="82" cy="46" r="3.1" fill="none" stroke="#5a3c1c" stroke-width="1.4" opacity="0.6"/><circle cx="82" cy="46" r="2.5" fill="url(#applications_development_recess)" stroke="#4a3014" stroke-width="1.2"/></g></svg>