<svg width="48" height="48" viewBox="0 0 48 48" xmlns="http://www.w3.org/2000/svg"><defs><linearGradient id="metal" x1="0" y1="0" x2="0" y2="36" gradientUnits="userSpaceOnUse"><stop offset="0" stop-color="#7a6440"/><stop offset="0.18" stop-color="#5a4830"/><stop offset="0.5" stop-color="#41331f"/><stop offset="1" stop-color="#241a10"/></linearGradient><radialGradient id="rv" cx="0.35" cy="0.3" r="0.7"><stop offset="0" stop-color="#ffeebc"/><stop offset="0.5" stop-color="#c2954f"/><stop offset="1" stop-color="#5c3f1e"/></radialGradient><linearGradient id="brass" x1="0" y1="0" x2="0" y2="1"><stop offset="0" stop-color="#c2954f"/><stop offset="0.5" stop-color="#8a6230"/><stop offset="1" stop-color="#4a3a26"/></linearGradient><radialGradient id="dark" cx="0.5" cy="0.3" r="0.9"><stop offset="0" stop-color="#241c12"/><stop offset="1" stop-color="#150f08"/></radialGradient></defs><rect id="center" x="7" y="7" width="34" height="34" fill="url(#dark)"/><rect id="top" x="7" y="0" width="34" height="7" fill="url(#brass)"/><rect id="bottom" x="7" y="41" width="34" height="7" fill="url(#brass)"/><rect id="left" x="0" y="7" width="7" height="34" fill="url(#brass)"/><rect id="right" x="41" y="7" width="7" height="34" fill="url(#brass)"/><g id="topleft"><path d="M0 7 A7 7 0 0 1 7 0 L7 7 Z" fill="url(#brass)" transform="rotate(0 3.5 3.5)"/><circle cx="3.5" cy="3.5" r="1.8" fill="url(#rv)" stroke="#3d2a12" stroke-width="0.4"/></g><g id="topright"><path d="M41 7 A7 7 0 0 1 48 0 L48 7 Z" fill="url(#brass)" transform="rotate(90 44.5 3.5)"/><circle cx="44.5" cy="3.5" r="1.8" fill="url(#rv)" stroke="#3d2a12" stroke-width="0.4"/></g><g id="bottomright"><path d="M41 48 A7 7 0 0 1 48 41 L48 48 Z" fill="url(#brass)" transform="rotate(180 44.5 44.5)"/><circle cx="44.5" cy="44.5" r="1.8" fill="url(#rv)" stroke="#3d2a12" stroke-width="0.4"/></g><g id="bottomleft"><path d="M0 48 A7 7 0 0 1 7 41 L7 48 Z" fill="url(#brass)" transform="rotate(270 3.5 44.5)"/><circle cx="3.5" cy="44.5" r="1.8" fill="url(#rv)" stroke="#3d2a12" stroke-width="0.4"/></g><rect x="6.5" y="6.5" width="35" height="35" fill="none" stroke="#c2954f" stroke-width="0.6" opacity="0.4"/></svg>