<svg width="36" height="36" viewBox="0 0 36 36" xmlns="http://www.w3.org/2000/svg"><defs><linearGradient id="metal" x1="0" y1="0" x2="0" y2="36" gradientUnits="userSpaceOnUse"><stop offset="0" stop-color="#7a6440"/><stop offset="0.18" stop-color="#5a4830"/><stop offset="0.5" stop-color="#41331f"/><stop offset="1" stop-color="#241a10"/></linearGradient><radialGradient id="rv" cx="0.35" cy="0.3" r="0.7"><stop offset="0" stop-color="#ffeebc"/><stop offset="0.5" stop-color="#c2954f"/><stop offset="1" stop-color="#5c3f1e"/></radialGradient><linearGradient id="brass" x1="0" y1="0" x2="0" y2="1"><stop offset="0" stop-color="#c2954f"/><stop offset="0.5" stop-color="#8a6230"/><stop offset="1" stop-color="#4a3a26"/></linearGradient><radialGradient id="dark" cx="0.5" cy="0.3" r="0.9"><stop offset="0" stop-color="#241c12"/><stop offset="1" stop-color="#150f08"/></radialGradient></defs><rect id="topleft" x="0" y="0" width="6" height="6" fill="url(#metal)"/><rect id="top" x="6" y="0" width="24" height="6" fill="url(#metal)"/><rect id="topright" x="30" y="0" width="6" height="6" fill="url(#metal)"/><rect id="left" x="0" y="6" width="6" height="24" fill="url(#metal)"/><rect id="center" x="6" y="6" width="24" height="24" fill="url(#metal)"/><rect id="right" x="30" y="6" width="6" height="24" fill="url(#metal)"/><rect id="bottomleft" x="0" y="30" width="6" height="6" fill="url(#metal)"/><rect id="bottom" x="6" y="30" width="24" height="6" fill="url(#metal)"/><rect id="bottomright" x="30" y="30" width="6" height="6" fill="url(#metal)"/><rect x="0" y="0" width="36" height="1.4" fill="#c2954f" opacity="0.55"/><rect x="0" y="34.6" width="36" height="1.4" fill="#150f08" opacity="0.8"/><circle cx="3" cy="6" r="2" fill="url(#rv)" stroke="#3d2a12" stroke-width="0.5"/><circle cx="3" cy="30" r="2" fill="url(#rv)" stroke="#3d2a12" stroke-width="0.5"/><circle cx="33" cy="6" r="2" fill="url(#rv)" stroke="#3d2a12" stroke-width="0.5"/><circle cx="33" cy="30" r="2" fill="url(#rv)" stroke="#3d2a12" stroke-width="0.5"/></svg>