<svg width="40" height="40" viewBox="0 0 40 40" xmlns="http://www.w3.org/2000/svg"><defs><linearGradient id="metal" x1="0" y1="0" x2="0" y2="36" gradientUnits="userSpaceOnUse"><stop offset="0" stop-color="#7a6440"/><stop offset="0.18" stop-color="#5a4830"/><stop offset="0.5" stop-color="#41331f"/><stop offset="1" stop-color="#241a10"/></linearGradient><radialGradient id="rv" cx="0.35" cy="0.3" r="0.7"><stop offset="0" stop-color="#ffeebc"/><stop offset="0.5" stop-color="#c2954f"/><stop offset="1" stop-color="#5c3f1e"/></radialGradient><linearGradient id="brass" x1="0" y1="0" x2="0" y2="1"><stop offset="0" stop-color="#c2954f"/><stop offset="0.5" stop-color="#8a6230"/><stop offset="1" stop-color="#4a3a26"/></linearGradient><radialGradient id="dark" cx="0.5" cy="0.3" r="0.9"><stop offset="0" stop-color="#241c12"/><stop offset="1" stop-color="#150f08"/></radialGradient></defs><rect id="center" x="6" y="6" width="28" height="28" fill="url(#dark)"/><rect id="top" x="6" y="0" width="28" height="6" fill="url(#brass)"/><rect id="bottom" x="6" y="34" width="28" height="6" fill="url(#brass)"/><rect id="left" x="0" y="6" width="6" height="28" fill="url(#brass)"/><rect id="right" x="34" y="6" width="6" height="28" fill="url(#brass)"/><g id="topleft"><path d="M0 6 A6 6 0 0 1 6 0 L6 6 Z" fill="url(#brass)" transform="rotate(0 3.0 3.0)"/><circle cx="3.0" cy="3.0" r="1.8" fill="url(#rv)" stroke="#3d2a12" stroke-width="0.4"/></g><g id="topright"><path d="M34 6 A6 6 0 0 1 40 0 L40 6 Z" fill="url(#brass)" transform="rotate(90 37.0 3.0)"/><circle cx="37.0" cy="3.0" r="1.8" fill="url(#rv)" stroke="#3d2a12" stroke-width="0.4"/></g><g id="bottomright"><path d="M34 40 A6 6 0 0 1 40 34 L40 40 Z" fill="url(#brass)" transform="rotate(180 37.0 37.0)"/><circle cx="37.0" cy="37.0" r="1.8" fill="url(#rv)" stroke="#3d2a12" stroke-width="0.4"/></g><g id="bottomleft"><path d="M0 40 A6 6 0 0 1 6 34 L6 40 Z" fill="url(#brass)" transform="rotate(270 3.0 37.0)"/><circle cx="3.0" cy="37.0" r="1.8" fill="url(#rv)" stroke="#3d2a12" stroke-width="0.4"/></g><rect x="5.5" y="5.5" width="29" height="29" fill="none" stroke="#c2954f" stroke-width="0.6" opacity="0.4"/></svg>